<svg width="27" height="27" viewBox="0 0 27 27" fill="none" xmlns="http://www.w3.org/2000/svg">
<path d="M20.25 21.0469C20.25 19.2246 18.9318 16.8749 16.875 16.875H10.125C8.06818 16.8749 6.75 19.2246 6.75 21.0469M3.375 13.5C3.375 7.90812 7.90812 3.375 13.5 3.375C19.0919 3.375 23.625 7.90812 23.625 13.5C23.625 19.0919 19.0919 23.625 13.5 23.625C7.90812 23.625 3.375 19.0919 3.375 13.5ZM16.875 10.125C16.875 11.989 15.364 13.5 13.5 13.5C11.636 13.5 10.125 11.989 10.125 10.125C10.125 8.26104 11.636 6.75 13.5 6.75C15.364 6.75 16.875 8.26104 16.875 10.125Z" stroke="#001A72" stroke-width="1.5"/>
</svg>
